<svg xmlns="http://www.w3.org/2000/svg" width="32" height="29" viewBox="0 0 32 29"><g transform="translate(-14 -15)"><path d="M36.844,41.654l-4.2,1.127V41.3l-.335-.34h-2.4v2.948h2.57l3.163-1.389Z" fill="#cdbdb2" fill-rule="evenodd"/><path d="M23.156,41.654l4.106,1.127V41.3l.35-.34H30v2.948H27.43l-3.164-1.389Z" fill="#cdbdb2" fill-rule="evenodd"/><path d="M32.312,38.444l.335,2.855-.426-.34H27.78l-.517.34.35-2.855.684-.432,3.422.077Z" fill="#393939" fill-rule="evenodd"/><path d="M34.624,19.074l-2.053,4.862-.943,14.153H28.3L27.263,23.936l-1.886-4.862Z" fill="#f89c35" fill-rule="evenodd"/><path d="M43.6,29.755,46,36.792l-5.992-.355H36.16V33.4l.167-6.235.867.679Z" fill="#f89d35" fill-rule="evenodd"/><path d="M39.063,30.542l-7.011.17.776,3.642,3.331-.864Z" fill="#d87c30" fill-rule="evenodd"/><path d="M39.063,30.619l-2.9,2.778v2.778Z" fill="#ea8d3a" fill-rule="evenodd"/><path d="M36.159,33.489l-3.422.864-1.11,3.735.776.432,3.757-2.253Z" fill="#f89d35" fill-rule="evenodd"/><path d="M36.159,36.268l.684,5.386-4.532-3.21Z" fill="#eb8f35" fill-rule="evenodd"/><path d="M32.055,30.712l-.425,7.377,1.276-3.766Z" fill="#ea8e3a" fill-rule="evenodd"/><path d="M40.1,36.36l-3.939-.093.684,5.386Z" fill="#d87c30" fill-rule="evenodd"/><path d="M44.114,44l-7.27-2.346L40.1,36.36l5.9.432Z" fill="#eb8f35" fill-rule="evenodd"/><path d="M32.569,23.936l3.681,3.133,2.814,3.473-7.011.262Z" fill="#e8821e" fill-rule="evenodd"/><path d="M36.844,41.654l-4.532-3.21.335,2.778v1.559l3.087-.6Z" fill="#dfcec3" fill-rule="evenodd"/><path d="M23.156,41.654l4.456-3.21-.35,2.778v1.559l-3.072-.6Z" fill="#dfcec3" fill-rule="evenodd"/><path d="M33.94,32.27,33,34.277l3.331-.88Z" fill="#393939" fill-rule="evenodd"/><path d="M44.207,15,32.572,23.936l1.962-4.862Z" fill="#e88f35" fill-rule="evenodd"/><path d="M44.205,15l1.536,4.769-.852,5.217.593.34-.852.787.684.6-.943.864.593.525L43.6,29.832l-6.418-1.991a56.356,56.356,0,0,1-4.623-3.9Q32.647,23.844,44.205,15Z" fill="#8e5a30" fill-rule="evenodd"/><path d="M16.4,29.755,14,36.792l5.992-.355H23.84V33.4l-.167-6.235-.852.679Z" fill="#f89d35" fill-rule="evenodd"/><path d="M20.937,30.542l7.011.17-.76,3.642-3.346-.864Z" fill="#d87c30" fill-rule="evenodd"/><path d="M20.937,30.619l2.9,2.778v2.778Z" fill="#ea8d3a" fill-rule="evenodd"/><path d="M23.841,33.489l3.422.864,1.11,3.735-.76.432-3.772-2.253Z" fill="#f89d35" fill-rule="evenodd"/><path d="M23.841,36.268l-.684,5.386,4.456-3.133Z" fill="#eb8f35" fill-rule="evenodd"/><path d="M27.946,30.712l.425,7.377-1.276-3.766Z" fill="#ea8e3a" fill-rule="evenodd"/><path d="M19.9,36.36l3.939-.093-.684,5.386Z" fill="#d87c30" fill-rule="evenodd"/><path d="M15.886,44l7.27-2.346L19.9,36.36l-5.9.432Z" fill="#eb8f35" fill-rule="evenodd"/><path d="M27.431,23.936,23.75,27.069l-2.814,3.473,7.011.262Z" fill="#e8821e" fill-rule="evenodd"/><path d="M26.061,32.27,27,34.277l-3.331-.88Z" fill="#393939" fill-rule="evenodd"/><path d="M15.8,15,27.43,23.936l-1.962-4.862Z" fill="#e88f35" fill-rule="evenodd"/><path d="M15.795,15l-1.536,4.769.852,5.217-.593.34.852.787-.684.6.943.864-.593.525L16.4,29.832l6.418-1.991a56.356,56.356,0,0,0,4.624-3.9Q27.353,23.844,15.795,15Z" fill="#8e5a30" fill-rule="evenodd"/></g></svg>